<?xml version="1.0" standalone="no"?>
<!DOCTYPE svg PUBLIC "-//W3C//DTD SVG 20010904//EN"
 "http://www.w3.org/TR/2001/REC-SVG-20010904/DTD/svg10.dtd">
<svg version="1.0" xmlns="http://www.w3.org/2000/svg"
 width="1080.000000pt" height="1350.000000pt" viewBox="0 0 1080.000000 1350.000000"
 preserveAspectRatio="xMidYMid meet">

<g transform="translate(0.000000,1350.000000) scale(0.100000,-0.100000)"
fill="#000000" stroke="none">
<path d="M5362 10552 c-10 -7 -14 -82 -19 -315 l-6 -307 47 0 c39 0 48 4 55
23 5 12 10 99 13 193 4 154 7 175 29 218 16 32 33 52 55 61 17 7 35 18 38 24
4 6 23 11 42 11 51 0 74 15 74 50 0 23 -5 31 -26 36 -52 13 -112 -2 -159 -40
l-45 -37 0 28 c0 15 -4 33 -8 40 -9 15 -74 26 -90 15z"/>
<path d="M4825 10520 c-11 -5 -40 -14 -64 -20 -33 -9 -59 -27 -101 -68 -46
-47 -59 -68 -73 -119 -21 -78 -21 -114 -1 -195 27 -105 95 -177 201 -211 56
-18 158 -22 195 -8 13 5 41 14 64 20 25 7 61 29 90 56 l48 45 -31 32 -31 31
-49 -41 c-61 -51 -143 -70 -230 -52 -46 10 -65 21 -104 61 -87 86 -66 106 124
120 65 5 134 16 154 24 19 8 64 15 99 15 69 0 80 8 75 55 -9 88 -109 216 -184
236 -23 6 -52 15 -65 20 -29 11 -91 11 -117 -1z m134 -96 c28 -5 111 -82 111
-103 0 -5 3 -16 6 -25 8 -20 -74 -42 -188 -50 -48 -3 -107 -13 -132 -21 -65
-22 -79 -13 -74 47 4 38 14 58 45 96 34 40 48 49 94 59 51 11 71 10 138 -3z"/>
<path d="M6885 10473 c-4 -21 -11 -51 -16 -68 -4 -16 -13 -55 -18 -85 -5 -30
-14 -73 -19 -95 -6 -22 -17 -74 -26 -115 -9 -41 -25 -114 -36 -161 -11 -48
-20 -97 -20 -108 0 -12 -7 -44 -16 -70 -22 -69 -16 -101 25 -128 19 -13 43
-23 55 -23 12 0 55 30 97 68 140 123 392 337 419 354 l26 18 -2 -39 c-1 -22
-5 -45 -10 -52 -7 -12 -15 -50 -44 -209 -6 -36 -18 -87 -25 -115 -7 -27 -18
-77 -25 -110 -6 -33 -16 -80 -21 -105 -9 -41 -7 -46 18 -72 16 -15 42 -30 58
-33 26 -5 40 3 106 62 98 88 267 234 298 259 13 10 44 38 69 62 25 23 48 42
51 42 11 1 141 127 141 137 0 13 -45 33 -75 33 -15 0 -45 -18 -78 -47 -29 -27
-75 -66 -102 -88 -47 -39 -105 -90 -221 -192 -67 -59 -134 -113 -142 -113 -7
0 5 81 24 165 15 69 21 98 64 300 12 55 28 127 36 161 8 33 14 63 14 67 0 8
-74 47 -89 47 -10 0 -150 -111 -231 -184 -26 -23 -68 -59 -94 -81 -27 -22 -76
-64 -110 -94 -33 -29 -73 -62 -88 -73 l-28 -19 0 23 c0 13 5 39 10 58 10 32
18 69 55 250 8 36 23 108 35 160 46 213 46 211 -1 235 -45 24 -57 19 -64 -22z"/>
<path d="M4145 10339 c-102 -10 -202 -86 -247 -186 -30 -67 -22 -198 16 -268
40 -72 83 -113 153 -146 80 -38 154 -39 247 -4 102 38 135 62 185 133 22 32
22 34 6 52 -35 39 -52 35 -109 -27 -46 -50 -63 -61 -106 -71 -103 -24 -179
-10 -235 42 -19 18 -35 40 -35 48 0 16 50 48 77 48 10 0 35 9 56 20 20 11 45
20 55 20 10 0 35 9 57 20 22 11 46 20 55 20 9 0 33 9 55 20 21 11 54 23 73 26
18 4 36 13 39 21 14 37 -71 159 -143 204 -41 25 -118 36 -199 28z m161 -114
c21 -14 44 -39 51 -56 12 -28 11 -30 -15 -41 -15 -5 -45 -19 -68 -29 -23 -11
-47 -19 -54 -19 -8 0 -32 -8 -54 -18 -47 -21 -131 -51 -163 -59 -22 -5 -23 -2
-23 54 0 48 5 68 30 106 16 26 33 47 38 47 4 0 18 9 29 19 42 39 169 37 229
-4z"/>
<path d="M3421 10005 c-75 -39 -136 -98 -156 -152 -25 -67 -32 -72 -58 -41
-20 25 -24 26 -57 15 -60 -20 -65 -9 145 -327 33 -50 77 -120 98 -156 24 -40
45 -64 56 -64 19 0 71 43 71 59 0 5 -31 56 -68 113 -101 152 -142 230 -142
269 1 50 31 109 81 154 43 39 45 40 120 40 l76 0 46 -50 c26 -27 47 -54 47
-58 0 -4 8 -20 18 -35 10 -15 49 -73 85 -129 37 -57 71 -103 76 -103 5 0 16 6
23 14 8 7 24 17 36 20 12 4 22 11 22 16 0 4 -22 41 -49 81 -26 41 -68 105 -92
144 -61 97 -136 185 -158 185 -10 0 -24 7 -31 15 -20 25 -135 19 -189 -10z"/>
<path d="M6056 9987 c-28 -21 -24 -96 6 -119 32 -24 60 -22 92 7 51 47 22 125
-47 125 -18 0 -41 -6 -51 -13z"/>
<path d="M2692 9792 c-27 -21 -34 -80 -13 -106 20 -24 74 -20 99 7 62 66 -15
154 -86 99z"/>
<path d="M2863 9588 l-32 -33 21 -25 c98 -120 196 -230 365 -407 12 -13 26
-23 31 -23 18 0 62 42 62 58 0 18 -72 104 -204 243 -45 47 -106 115 -136 152
-30 37 -60 67 -66 67 -5 0 -24 -15 -41 -32z"/>
<path d="M7905 9441 c-59 -17 -119 -54 -171 -106 -42 -42 -56 -65 -73 -120
-25 -80 -25 -88 -7 -158 36 -138 186 -277 299 -277 36 0 37 1 37 38 0 37 -2
39 -51 56 -71 26 -142 85 -169 141 -20 41 -22 57 -17 123 4 55 11 80 25 94 19
19 20 18 118 -82 54 -56 115 -120 134 -143 19 -23 54 -62 77 -87 l42 -45 31
30 c48 45 77 96 95 166 15 57 15 67 0 129 -32 131 -151 235 -281 245 -33 2
-72 0 -89 -4z m137 -102 c71 -27 112 -69 138 -140 22 -57 22 -59 4 -106 -9
-26 -25 -56 -34 -66 -16 -18 -21 -14 -112 80 -161 167 -182 193 -170 205 15
15 83 46 104 47 10 1 41 -8 70 -20z"/>
<path d="M2595 9334 l-28 -36 32 -25 c38 -30 39 -43 5 -43 -77 0 -196 -96
-244 -197 -30 -63 -38 -158 -17 -204 8 -19 18 -44 22 -56 9 -33 84 -101 146
-134 136 -73 315 -9 402 143 29 50 51 146 40 174 -7 19 -7 19 22 0 85 -56 125
-141 104 -219 -21 -80 -141 -206 -211 -222 -43 -10 -53 -29 -39 -75 6 -22 14
-40 17 -40 14 0 113 52 124 65 7 8 18 15 25 15 22 0 133 129 162 188 49 101
41 204 -22 288 -22 28 -328 284 -341 284 -2 0 -24 18 -46 40 -23 22 -45 40
-49 40 -3 0 -18 11 -33 25 -15 14 -31 25 -35 25 -5 0 -21 -16 -36 -36z m174
-208 c22 -14 53 -45 70 -70 27 -39 31 -53 31 -110 0 -56 -4 -71 -30 -109 -65
-97 -121 -125 -226 -114 -64 7 -111 40 -154 110 -37 59 -38 101 -4 173 28 60
106 135 151 146 49 12 120 0 162 -26z"/>
<path d="M8655 9005 c-49 -30 -103 -61 -120 -70 -16 -9 -47 -25 -67 -35 -21
-11 -38 -25 -38 -30 0 -6 -8 -10 -17 -10 -9 0 -24 -7 -33 -15 -8 -8 -40 -27
-70 -43 -30 -16 -109 -62 -175 -101 -66 -39 -124 -72 -129 -74 -13 -4 0 -47
23 -77 18 -23 21 -23 38 -8 10 8 28 19 41 22 20 7 21 5 12 -19 -15 -41 -12
-105 9 -162 57 -157 198 -239 356 -206 58 12 101 33 162 81 13 9 40 42 60 72
37 54 38 56 37 150 0 80 -4 102 -23 140 -32 60 -70 110 -86 110 -6 0 -19 8
-29 18 -9 11 -35 24 -57 31 l-40 12 38 28 c21 15 50 34 65 42 46 24 183 101
188 106 5 5 -42 93 -50 93 -3 -1 -45 -25 -95 -55z m-153 -297 c195 -71 199
-325 6 -415 -102 -47 -199 -20 -270 76 -34 45 -38 57 -38 111 0 101 58 181
162 225 68 29 70 29 140 3z"/>
<path d="M2111 8576 c-54 -29 -96 -76 -128 -144 -23 -48 -25 -64 -21 -142 l4
-89 -33 14 c-28 12 -35 12 -48 -1 -18 -18 -29 -59 -20 -73 3 -6 41 -27 83 -48
181 -86 348 -166 362 -174 24 -14 59 -28 83 -34 18 -5 26 2 45 36 13 22 22 42
20 44 -2 2 -48 24 -103 49 -55 26 -107 51 -115 56 -8 6 -26 15 -40 20 -50 21
-74 36 -103 65 -78 78 -75 191 8 283 41 45 42 45 103 45 55 -1 76 -8 199 -68
76 -37 154 -76 175 -86 l36 -19 22 35 c23 38 23 63 0 76 -62 32 -205 99 -213
99 -6 0 -18 6 -26 14 -29 26 -152 66 -200 65 -27 0 -64 -10 -90 -23z"/>
<path d="M1555 7903 c-4 -21 -10 -49 -15 -63 -5 -14 -12 -43 -16 -65 -3 -22
-12 -62 -19 -90 -22 -80 -54 -227 -57 -259 -4 -38 36 -61 140 -81 42 -8 102
-21 132 -30 30 -8 66 -15 80 -15 14 -1 50 -9 80 -20 30 -11 69 -19 85 -20 17
0 56 -9 87 -20 31 -11 88 -23 127 -26 l70 -7 6 29 c7 32 29 129 50 219 55 231
69 314 55 329 -3 2 -17 7 -32 11 -34 9 -53 -19 -67 -95 -13 -74 -29 -144 -47
-206 -7 -28 -17 -71 -20 -96 -4 -25 -10 -51 -13 -57 -9 -13 -90 -2 -196 28
l-70 19 3 44 c1 23 9 68 17 98 28 104 55 228 55 248 0 16 -8 23 -37 28 -43 8
-63 -11 -63 -62 0 -17 -7 -48 -15 -67 -8 -20 -15 -48 -15 -62 0 -15 -6 -47
-14 -73 -8 -26 -19 -66 -25 -88 l-11 -42 -68 14 c-128 26 -176 40 -180 53 -2
7 1 31 6 54 6 23 20 85 32 137 12 52 28 120 36 151 22 87 20 105 -17 113 -53
10 -58 8 -64 -31z"/>
<path d="M9158 7845 c-53 -8 -105 -18 -115 -23 -11 -6 -48 -13 -83 -17 -36 -4
-94 -15 -130 -25 -36 -10 -96 -21 -134 -24 -38 -4 -84 -13 -104 -21 -19 -8
-51 -15 -71 -15 -62 0 -64 -5 -47 -111 54 -335 93 -437 199 -522 89 -73 118
-82 257 -82 114 1 130 3 179 27 83 41 152 106 189 179 56 112 63 202 27 379
-17 83 -43 213 -51 248 -2 12 -8 22 -12 21 -4 -1 -51 -7 -104 -14z m46 -132
c3 -10 8 -40 11 -68 4 -27 13 -72 21 -99 42 -148 -7 -302 -124 -385 -91 -64
-268 -67 -360 -4 -78 53 -123 137 -148 279 -7 45 -18 94 -24 109 -13 35 -13
72 1 81 6 4 48 10 93 15 45 5 98 15 119 24 20 8 56 15 79 15 24 0 68 7 98 16
56 16 139 30 197 33 22 1 33 -4 37 -16z"/>
<path d="M8773 6873 c-12 -2 -27 -11 -33 -19 -7 -8 -18 -14 -25 -14 -18 0 -92
-85 -118 -135 -18 -34 -22 -57 -22 -155 0 -111 1 -117 31 -165 34 -55 56 -66
85 -39 23 20 25 47 5 64 -23 18 -39 114 -31 181 5 45 15 70 39 101 38 51 116
99 146 91 20 -5 22 -11 16 -47 -10 -68 -27 -438 -20 -458 7 -23 23 -23 125 2
93 22 134 49 186 124 38 56 53 103 53 170 0 118 -66 226 -172 279 -48 24 -63
27 -148 26 -52 -1 -105 -4 -117 -6z m230 -112 c31 -14 55 -34 78 -68 31 -43
34 -55 34 -118 0 -56 -5 -79 -24 -112 -14 -24 -32 -45 -41 -48 -10 -3 -25 -14
-35 -25 -12 -14 -31 -20 -58 -20 l-40 0 6 83 c4 45 10 137 13 205 4 67 10 122
15 122 4 0 28 -9 52 -19z"/>
<path d="M1845 6781 c-117 -29 -208 -123 -234 -239 -12 -57 -12 -71 3 -135 24
-98 75 -166 159 -209 56 -29 71 -32 147 -32 70 1 95 5 140 26 102 48 166 139
177 250 9 96 -11 191 -54 255 -40 61 -62 67 -93 23 l-21 -30 29 -37 c73 -95
68 -227 -11 -318 -34 -37 -49 -47 -77 -48 -33 -2 -35 -1 -41 43 -4 25 -13 130
-19 234 -6 103 -15 197 -21 207 -10 20 -33 22 -84 10z m19 -123 c12 -59 26
-203 29 -290 5 -108 5 -108 -61 -89 -74 22 -141 110 -142 189 0 84 56 171 132
202 34 13 37 12 42 -12z"/>
<path d="M9115 6135 c-22 -8 -58 -15 -80 -15 -22 -1 -74 -7 -115 -16 -41 -8
-118 -21 -170 -28 -138 -19 -250 -48 -260 -66 -4 -8 -10 -31 -14 -51 l-6 -36
157 -121 c87 -67 202 -155 255 -197 54 -41 104 -75 112 -75 18 0 36 30 36 58
0 11 -15 32 -32 46 -18 14 -40 32 -48 39 -8 8 -33 27 -55 43 -22 16 -76 57
-120 91 -129 100 -133 103 -144 103 -6 0 -15 9 -21 20 -9 17 -6 20 27 25 21 4
58 13 82 21 25 8 65 14 90 14 25 1 80 8 121 16 41 8 103 18 137 22 34 4 66 12
71 17 11 12 32 72 32 91 0 17 -5 17 -55 -1z"/>
<path d="M1713 6023 c-30 -6 -46 -29 -39 -56 8 -34 73 -116 109 -138 l32 -19
-43 -17 c-41 -17 -43 -20 -38 -52 3 -18 8 -36 11 -39 12 -12 83 -3 141 17 32
12 70 21 84 21 14 1 43 8 65 16 22 8 72 21 111 29 39 7 79 18 90 23 10 6 40
14 66 17 26 3 50 10 52 14 6 9 -10 69 -23 90 -8 12 -15 12 -53 -2 -23 -8 -63
-19 -88 -23 -25 -3 -71 -15 -104 -25 -35 -11 -88 -19 -130 -19 -89 0 -127 23
-172 107 -32 60 -36 63 -71 56z"/>
<path d="M2360 5675 c-14 -7 -52 -25 -85 -40 -33 -14 -78 -34 -100 -44 -22
-10 -69 -31 -105 -47 -71 -32 -133 -82 -157 -129 -49 -92 7 -263 122 -377 50
-50 71 -55 95 -26 11 13 19 27 20 32 0 5 -25 35 -55 67 -91 95 -126 194 -88
249 52 78 105 103 122 58 25 -64 87 -188 114 -226 44 -60 83 -82 149 -82 168
0 224 196 102 358 -32 42 -94 91 -117 93 -7 0 -2 5 9 11 29 14 47 54 35 77
-18 34 -34 41 -61 26z m-12 -174 c83 -43 132 -134 117 -220 -5 -31 -13 -41
-41 -54 -55 -27 -83 -22 -123 22 -30 31 -111 196 -111 223 0 12 73 47 98 48
12 0 39 -9 60 -19z"/>
<path d="M8440 5562 c-121 -55 -206 -176 -217 -310 -7 -80 10 -147 34 -138 8
3 18 6 23 6 25 0 39 32 33 79 -16 141 113 288 247 279 43 -3 45 -4 42 -32 -2
-15 -14 -46 -28 -67 -13 -21 -24 -41 -24 -44 0 -3 -21 -49 -46 -103 -25 -53
-60 -125 -76 -160 -31 -65 -31 -92 -1 -92 10 0 30 -8 43 -17 17 -12 45 -17 95
-18 118 0 213 61 276 178 28 52 32 69 31 136 0 126 -60 221 -176 281 -53 27
-67 30 -150 29 -50 0 -98 -3 -106 -7z m292 -174 c39 -42 48 -67 48 -136 0
-102 -60 -182 -151 -201 -55 -12 -119 -6 -119 12 0 6 13 38 29 71 16 34 53
112 83 174 29 61 59 112 66 112 8 0 28 -15 44 -32z"/>
<path d="M8041 4989 c-22 -36 -17 -65 12 -81 19 -10 63 -39 152 -98 13 -8 109
-73 215 -145 105 -71 203 -137 218 -145 14 -8 35 -23 46 -32 31 -28 69 -23 94
12 12 16 22 31 22 34 0 2 -15 13 -32 24 -18 12 -53 35 -78 53 -51 36 -276 189
-302 204 -9 6 -81 54 -161 108 -79 53 -150 97 -156 97 -6 0 -20 -14 -30 -31z"/>
<path d="M2679 4996 c-14 -7 -43 -16 -65 -20 -21 -4 -52 -14 -69 -21 -16 -7
-46 -17 -65 -20 -19 -4 -52 -16 -72 -26 -21 -11 -47 -19 -58 -19 -11 0 -37 -7
-58 -16 -20 -9 -62 -22 -92 -30 -30 -8 -65 -22 -78 -30 l-22 -15 22 -29 c24
-34 43 -37 84 -15 16 8 38 15 49 15 12 0 38 9 60 20 22 11 48 20 60 20 11 0
38 9 60 19 22 10 58 21 80 25 22 4 49 13 60 20 23 15 85 26 85 15 0 -6 -44
-81 -202 -343 -32 -52 -58 -102 -58 -111 0 -9 9 -29 21 -44 l21 -28 76 23 c41
13 80 28 86 34 5 5 24 10 41 10 17 0 47 8 67 19 20 10 56 21 80 25 24 4 52 13
63 20 11 7 39 15 63 19 l42 5 -31 -56 c-18 -32 -38 -64 -44 -72 -7 -8 -38 -58
-69 -110 -31 -52 -72 -120 -91 -150 -36 -57 -37 -78 -7 -112 21 -25 34 -22 53
10 16 26 197 324 272 447 20 33 37 67 37 74 0 8 -12 32 -26 53 -29 41 -36 42
-98 12 -16 -8 -36 -14 -45 -14 -9 -1 -34 -8 -56 -16 -22 -8 -67 -22 -99 -30
-33 -8 -65 -19 -71 -24 -7 -6 -34 -14 -61 -19 -27 -5 -57 -13 -66 -16 -10 -4
-18 -3 -18 2 0 4 30 58 66 118 37 61 76 128 89 150 12 22 38 66 58 97 21 31
37 60 37 63 0 16 -57 85 -70 85 -8 0 -27 -6 -41 -14z"/>
<path d="M7875 4700 c-22 -11 -43 -20 -49 -20 -5 0 -33 -21 -63 -46 -90 -77
-137 -204 -113 -305 7 -30 21 -70 31 -90 22 -44 124 -138 159 -146 14 -3 30
-10 37 -15 24 -19 129 -22 163 -4 18 9 38 16 43 16 20 0 117 71 142 104 14 18
37 62 51 97 22 53 25 75 22 129 -6 78 -29 127 -95 197 -87 94 -234 131 -328
83z m184 -108 c76 -35 141 -133 141 -210 -1 -77 -75 -179 -147 -203 -19 -6
-62 -9 -94 -7 -69 5 -126 40 -174 108 -28 38 -30 49 -30 124 0 81 1 84 38 129
44 54 62 65 120 76 51 9 101 4 146 -17z"/>
<path d="M7283 4478 c-41 -29 -41 -44 0 -99 39 -52 127 -185 127 -192 0 -2
-35 -6 -78 -9 -88 -5 -141 -30 -204 -95 -62 -65 -83 -116 -83 -208 0 -66 5
-90 26 -135 37 -77 87 -130 155 -165 50 -25 70 -29 134 -29 63 1 84 6 136 32
90 45 150 120 169 207 l7 30 21 -26 c12 -14 30 -29 39 -32 20 -7 68 28 68 49
0 15 -73 126 -187 284 -30 41 -94 134 -144 206 -49 72 -104 148 -122 168 l-32
37 -32 -23z m203 -420 c34 -23 57 -50 77 -88 67 -131 6 -273 -135 -315 -47
-14 -57 -14 -106 0 -102 30 -172 123 -172 230 0 70 29 126 87 171 47 36 74 44
144 39 44 -2 67 -10 105 -37z"/>
<path d="M3208 4366 c-14 -32 -4 -56 22 -56 12 0 34 -15 51 -32 23 -26 29 -42
29 -76 0 -39 -7 -52 -62 -119 -35 -42 -85 -103 -111 -137 -26 -33 -54 -64 -61
-68 -9 -5 -36 10 -76 42 -34 28 -66 50 -71 50 -9 0 -49 -49 -49 -60 0 -4 21
-24 48 -43 91 -70 92 -74 41 -130 -16 -17 -29 -36 -29 -41 0 -14 51 -66 65
-66 6 0 28 20 48 45 21 25 42 45 47 45 5 0 22 -11 38 -25 38 -32 46 -32 73 6
20 29 21 32 5 41 -20 11 -56 49 -56 59 0 4 52 71 116 150 63 78 121 154 128
168 45 89 15 177 -83 242 -56 36 -97 38 -113 5z"/>
<path d="M3675 4017 c-11 -17 -31 -52 -45 -77 -14 -25 -44 -73 -68 -107 -23
-35 -46 -71 -50 -81 -14 -35 -84 -132 -95 -132 -7 0 -40 18 -75 40 -72 46 -78
47 -92 21 -18 -35 -12 -60 23 -80 17 -11 49 -31 69 -46 l38 -26 -22 -32 c-46
-66 -60 -77 -98 -77 -29 0 -47 9 -84 41 -45 40 -47 41 -71 25 -32 -21 -32 -44
3 -82 46 -51 113 -77 184 -72 57 4 63 7 104 51 24 26 48 56 54 67 14 26 29 25
73 -4 l36 -25 21 29 c11 15 20 32 20 38 0 5 -18 22 -40 37 -22 15 -40 29 -40
31 0 3 33 57 124 204 29 47 72 115 94 152 46 74 53 112 23 128 -37 19 -65 12
-86 -23z"/>
<path d="M3913 3809 c-67 -39 -106 -86 -138 -166 -52 -130 -20 -265 83 -351
27 -23 56 -42 63 -42 7 0 21 -8 32 -17 15 -14 41 -19 124 -21 95 -4 108 -2
134 17 15 12 35 21 43 21 15 0 63 51 101 108 38 58 59 164 44 226 -22 97 -88
180 -183 230 -43 23 -60 26 -150 26 -94 0 -104 -2 -153 -31z m283 -92 c81 -51
111 -126 94 -232 -7 -43 -19 -69 -46 -102 -39 -48 -119 -93 -165 -93 -32 0
-124 41 -161 72 -29 25 -68 106 -68 142 0 49 45 152 85 191 68 69 174 78 261
22z"/>
<path d="M6630 3834 c-83 -27 -190 -105 -210 -153 -13 -33 -2 -64 29 -80 16
-9 25 -2 57 42 76 100 208 136 313 83 41 -21 81 -61 81 -81 0 -6 -94 -50 -185
-87 -27 -11 -68 -28 -90 -39 -22 -10 -44 -19 -49 -19 -9 0 -83 -32 -116 -50
-50 -27 46 -166 149 -216 47 -23 64 -26 136 -22 61 2 88 8 102 21 11 9 25 17
33 17 7 0 37 20 66 45 70 60 110 154 102 242 -11 117 -84 229 -181 277 -43 22
-64 26 -136 25 -48 0 -93 -3 -101 -5z m314 -290 c16 -43 -8 -131 -51 -180 -25
-28 -128 -74 -167 -74 -52 0 -166 78 -166 114 0 8 89 56 105 56 10 0 34 9 54
19 43 23 191 80 207 81 7 0 15 -7 18 -16z"/>
<path d="M6131 3661 c-9 -6 -10 -14 -3 -27 5 -11 12 -41 16 -68 3 -27 13 -72
20 -100 29 -100 37 -182 25 -233 -15 -61 -41 -90 -106 -119 -28 -13 -54 -28
-58 -34 -3 -6 -1 -26 5 -45 14 -43 35 -45 96 -9 41 24 74 57 100 100 11 17 13
13 24 -28 14 -54 27 -59 78 -28 23 14 32 26 28 38 -3 9 -10 37 -15 62 -5 25
-14 68 -21 95 -22 89 -63 274 -86 383 -4 19 -11 22 -47 22 -23 0 -48 -4 -56
-9z"/>
<path d="M4646 3635 c-122 -35 -182 -130 -161 -254 7 -42 79 -131 106 -131 9
0 24 -9 34 -20 10 -11 23 -20 28 -20 9 0 73 -28 155 -69 19 -9 50 -33 69 -55
32 -35 35 -43 30 -83 -10 -90 -85 -124 -224 -102 -44 7 -88 20 -102 31 -13 10
-28 18 -33 18 -6 0 -21 9 -35 20 -35 27 -48 25 -72 -12 l-20 -33 21 -22 c12
-13 31 -26 42 -29 12 -4 28 -12 36 -19 15 -13 99 -38 190 -57 52 -10 118 -3
158 18 15 7 32 14 39 14 20 0 73 51 92 89 68 135 15 233 -176 325 -54 26 -107
52 -118 59 -11 6 -32 17 -47 24 -71 36 -90 128 -39 185 l29 33 109 0 c102 0
111 -2 172 -33 35 -18 81 -46 101 -62 21 -17 42 -30 47 -30 5 0 19 14 32 31
22 30 22 31 4 51 -23 26 -116 88 -132 88 -6 0 -23 7 -36 16 -49 32 -227 49
-299 29z"/>
<path d="M5429 3561 c-16 -16 -29 -38 -29 -49 0 -32 48 -82 78 -82 33 0 82 46
82 78 0 29 -51 82 -80 82 -12 0 -35 -13 -51 -29z"/>
</g>
</svg>
